{
	"asset": {
		"generator": "Blocks",
		"version": "0.69",
		"copyright": "Unknown"
	},
	"buffers": {
		"model": {
			"byteLength": 666380,
			"type": "arraybuffer",
			"uri": "model.bin"
		}
	},
	"accessors": {
		"accessor_position_m0-PolyPaper19_-13122": {
			"bufferView": "vec3BufferView",
			"byteOffset": 0,
			"byteStride": 12,
			"componentType": 5126,
			"count": 9932,
			"max": [ 3.173391, -1.342632, -0.798057 ],
			"min": [ 1.522638, -3.056544, -2.139736 ],
			"type": "VEC3"
		 },
		"accessor_normal_m0-PolyPaper19_-13122": {
			"bufferView": "vec3BufferView",
			"byteOffset": 119184,
			"byteStride": 12,
			"componentType": 5126,
			"count": 9932,
			"max": [ 0.99825, 0.9999383, 0.9982007 ],
			"min": [ -0.9999042, -1, -0.9987549 ],
			"type": "VEC3"
		 },
		"accessor_color_m0-PolyPaper19_-13122": {
			"bufferView": "vec4BufferView",
			"byteOffset": 0,
			"byteStride": 16,
			"componentType": 5126,
			"count": 9932,
			"max": [ 1, 1, 1, 1 ],
			"min": [ 0.1019608, 0.1019608, 0.1019608, 1 ],
			"type": "VEC4"
		 },
		"accessor_indices_0_m0-PolyPaper19_-13122": {
			"bufferView": "ushortBufferView",
			"byteOffset": 0,
			"byteStride": 0,
			"componentType": 5123,
			"count": 13578,
			"max": [ 9931 ],
			"min": [ 0 ],
			"type": "SCALAR"
		 },
		"accessor_position_m1-PolyPaper23_-13124": {
			"bufferView": "vec3BufferView",
			"byteOffset": 238368,
			"byteStride": 12,
			"componentType": 5126,
			"count": 5646,
			"max": [ 3.140023, -1.365183, -0.7724526 ],
			"min": [ 1.881921, -3.081672, -1.782281 ],
			"type": "VEC3"
		 },
		"accessor_normal_m1-PolyPaper23_-13124": {
			"bufferView": "vec3BufferView",
			"byteOffset": 306120,
			"byteStride": 12,
			"componentType": 5126,
			"count": 5646,
			"max": [ 0.9998321, 1, 0.9997383 ],
			"min": [ -0.9998321, -1, -0.9998164 ],
			"type": "VEC3"
		 },
		"accessor_color_m1-PolyPaper23_-13124": {
			"bufferView": "vec4BufferView",
			"byteOffset": 158912,
			"byteStride": 16,
			"componentType": 5126,
			"count": 5646,
			"max": [ 1, 1, 1, 1 ],
			"min": [ 0.1019608, 0.1019608, 0.1019608, 1 ],
			"type": "VEC4"
		 },
		"accessor_indices_0_m1-PolyPaper23_-13124": {
			"bufferView": "ushortBufferView",
			"byteOffset": 27156,
			"byteStride": 0,
			"componentType": 5123,
			"count": 8052,
			"max": [ 5645 ],
			"min": [ 0 ],
			"type": "SCALAR"
		 }
	},
	"bufferViews": {
		"ushortBufferView": {
			"buffer": "model",
			"byteLength": 43260,
			"byteOffset": 0,
			"target": 34963
		},
		"vec3BufferView": {
			"buffer": "model",
			"byteLength": 373872,
			"byteOffset": 43260,
			"target": 34962
		},
		"vec4BufferView": {
			"buffer": "model",
			"byteLength": 249248,
			"byteOffset": 417132,
			"target": 34962
		}
	},
	"meshes": {
		"mesh_m0-PolyPaper19_-13122": {
			"name": "mesh_m0-PolyPaper19_-13122",
			"primitives": [
				{
					"attributes": {
						"POSITION": "accessor_position_m0-PolyPaper19_-13122",
						"NORMAL": "accessor_normal_m0-PolyPaper19_-13122",
						"COLOR": "accessor_color_m0-PolyPaper19_-13122"
					},
					"indices": "accessor_indices_0_m0-PolyPaper19_-13122",
					"material": "material_mat19",
					"mode": 4
				}
			]
		},
		"mesh_m1-PolyPaper23_-13124": {
			"name": "mesh_m1-PolyPaper23_-13124",
			"primitives": [
				{
					"attributes": {
						"POSITION": "accessor_position_m1-PolyPaper23_-13124",
						"NORMAL": "accessor_normal_m1-PolyPaper23_-13124",
						"COLOR": "accessor_color_m1-PolyPaper23_-13124"
					},
					"indices": "accessor_indices_0_m1-PolyPaper23_-13124",
					"material": "material_mat23",
					"mode": 4
				}
			]
		}
	},
	"shaders": {
		"vertex_mat19": {
			"type": 35633,
			"uri": "https://vr.google.com/shaders/w/vs.glsl"
		},
		"fragment_mat19": {
			"type": 35632,
			"uri": "https://vr.google.com/shaders/w/fs.glsl"
		},
		"vertex_mat23": {
			"type": 35633,
			"uri": "https://vr.google.com/shaders/w/vs.glsl"
		},
		"fragment_mat23": {
			"type": 35632,
			"uri": "https://vr.google.com/shaders/w/fs.glsl"
		}
	},
	"programs": {
		"program_mat19": {
			"attributes": [
				"a_position",
				"a_normal",
				"a_color"				
			],
			"vertexShader": "vertex_mat19",
			"fragmentShader": "fragment_mat19"
		},
		"program_mat23": {
			"attributes": [
				"a_position",
				"a_normal",
				"a_color"				
			],
			"vertexShader": "vertex_mat23",
			"fragmentShader": "fragment_mat23"
		}
	},
	"techniques": {
		"technique_mat19": {
			"program": "program_mat19",
			"extras": {"gvrss" : "https://vr.google.com/shaders/w/gvrss/paper.json"},
			"parameters": {
				"position": {
					"type": 35665,
					"semantic": "POSITION"
				},
				"normal": {
					"type": 35665,
					"semantic": "NORMAL"
				},
				"color": {
					"type": 35666,
					"semantic": "COLOR"
				},
				"modelViewMatrix": {
					"type": 35676,
					"semantic": "MODELVIEW"
				},
				"projectionMatrix": {
					"type": 35676,
					"semantic": "PROJECTION"
				},
				"normalMatrix": {
					"type": 35675,
					"semantic": "MODELVIEWINVERSETRANSPOSE"
				},
				"color": {
					"type": 35666
				},
				"roughness": {
					"type": 5126
				},
				"metallic": {
					"type": 5126
				},
				"light0Pos": {
					"type": 35666
				},
				"light0Color": {
					"type": 35666
				},
				"light1Pos": {
					"type": 35666
				},
				"light1Color": {
					"type": 35666
				}				
			},
			"attributes": {
				"a_position": "position",
				"a_normal": "normal",
				"a_color": "color"				
			},
			"uniforms": {
				"u_modelViewMatrix": "modelViewMatrix",
				"u_projectionMatrix": "projectionMatrix",
				"u_normalMatrix": "normalMatrix",
				"u_color": "color",
				"u_roughness": "roughness",
				"u_metallic": "metallic",
				"u_light0Pos": "light0Pos",
				"u_light0Color": "light0Color",
				"u_light1Pos": "light1Pos",
				"u_light1Color": "light1Color"				
			},
			"states": {
				"enable": [
					2929,
					2884
				],
				"functions": {
					"cullFace": [1029]
				}
			}
		},
		"technique_mat23": {
			"program": "program_mat23",
			"extras": {"gvrss" : "https://vr.google.com/shaders/w/gvrss/paper.json"},
			"parameters": {
				"position": {
					"type": 35665,
					"semantic": "POSITION"
				},
				"normal": {
					"type": 35665,
					"semantic": "NORMAL"
				},
				"color": {
					"type": 35666,
					"semantic": "COLOR"
				},
				"modelViewMatrix": {
					"type": 35676,
					"semantic": "MODELVIEW"
				},
				"projectionMatrix": {
					"type": 35676,
					"semantic": "PROJECTION"
				},
				"normalMatrix": {
					"type": 35675,
					"semantic": "MODELVIEWINVERSETRANSPOSE"
				},
				"color": {
					"type": 35666
				},
				"roughness": {
					"type": 5126
				},
				"metallic": {
					"type": 5126
				},
				"light0Pos": {
					"type": 35666
				},
				"light0Color": {
					"type": 35666
				},
				"light1Pos": {
					"type": 35666
				},
				"light1Color": {
					"type": 35666
				}				
			},
			"attributes": {
				"a_position": "position",
				"a_normal": "normal",
				"a_color": "color"				
			},
			"uniforms": {
				"u_modelViewMatrix": "modelViewMatrix",
				"u_projectionMatrix": "projectionMatrix",
				"u_normalMatrix": "normalMatrix",
				"u_color": "color",
				"u_roughness": "roughness",
				"u_metallic": "metallic",
				"u_light0Pos": "light0Pos",
				"u_light0Color": "light0Color",
				"u_light1Pos": "light1Pos",
				"u_light1Color": "light1Color"				
			},
			"states": {
				"enable": [
					2929,
					2884
				],
				"functions": {
					"cullFace": [1029]
				}
			}
		}
	},
	"materials": {
		"material_mat19": {
			"technique": "technique_mat19",
			"values": {
				"color": [0.8666667, 0.6, 0.2666667, 1],
				"roughness": 0.8,
				"metallic": 0,
				"light0Pos": [-0.02, 4.11, -0.54, 0],
				"light0Color": [0.8, 0.8, 0.8, 0],
				"light1Pos": [0.02, -4.11, 0.54, 0],
				"light1Color": [0.64, 0.64, 0.64, 0]				
			},
			"name": "material_mat19"
		},
		"material_mat23": {
			"technique": "technique_mat23",
			"values": {
				"color": [0.1019608, 0.1019608, 0.1019608, 1],
				"roughness": 0.8,
				"metallic": 0,
				"light0Pos": [-0.02, 4.11, -0.54, 0],
				"light0Color": [0.8, 0.8, 0.8, 0],
				"light1Pos": [0.02, -4.11, 0.54, 0],
				"light1Color": [0.64, 0.64, 0.64, 0]				
			},
			"name": "material_mat23"
		}
	},
	"nodes": {
		"node_MeshObject1038146560-PolyPaper19": {
			"name": "node_MeshObject1038146560-PolyPaper19",
			"meshes": [
				"mesh_m0-PolyPaper19_-13122"
			],
			"matrix": [1, 0, 0, 0, 0, 1, 0, 0, 0, 0, 1, 0, 0, 0, 0, 1]
		},
		"node_MeshObject1556866624-PolyPaper23": {
			"name": "node_MeshObject1556866624-PolyPaper23",
			"meshes": [
				"mesh_m1-PolyPaper23_-13124"
			],
			"matrix": [1, 0, 0, 0, 0, 1, 0, 0, 0, 0, 1, 0, 0, 0, 0, 1]
		}
	},
	"scene": "defaultScene",
	"scenes": {
		"defaultScene": {
			"nodes": [
				"node_MeshObject1038146560-PolyPaper19",
				"node_MeshObject1556866624-PolyPaper23"
			],
			"extras": {

			}
		}
	}
}