{
	"asset": {
		"generator": "Blocks",
		"version": "1.0.4",
		"copyright": "Unknown"
	},
	"buffers": {
		"model": {
			"byteLength": 76536,
			"type": "arraybuffer",
			"uri": "model.bin"
		}
	},
	"accessors": {
		"accessor_position_m0-PolyPaper16_-372930": {
			"bufferView": "vec3BufferView",
			"byteOffset": 0,
			"byteStride": 12,
			"componentType": 5126,
			"count": 1728,
			"max": [ 1.829391, 2.718526, 0.870021 ],
			"min": [ -0.1899894, 0.4679481, -0.7606431 ],
			"type": "VEC3"
		 },
		"accessor_normal_m0-PolyPaper16_-372930": {
			"bufferView": "vec3BufferView",
			"byteOffset": 20736,
			"byteStride": 12,
			"componentType": 5126,
			"count": 1728,
			"max": [ 1, 1, 1 ],
			"min": [ -1, -1, -1 ],
			"type": "VEC3"
		 },
		"accessor_color_m0-PolyPaper16_-372930": {
			"bufferView": "vec4BufferView",
			"byteOffset": 0,
			"byteStride": 16,
			"componentType": 5126,
			"count": 1728,
			"max": [ 1, 1, 1, 1 ],
			"min": [ 0.2705882, 0.3529412, 0.3137255, 1 ],
			"type": "VEC4"
		 },
		"accessor_indices_0_m0-PolyPaper16_-372930": {
			"bufferView": "ushortBufferView",
			"byteOffset": 0,
			"byteStride": 0,
			"componentType": 5123,
			"count": 2676,
			"max": [ 1727 ],
			"min": [ 0 ],
			"type": "SCALAR"
		 },
		"accessor_position_m1-PolyGlass24_-361130": {
			"bufferView": "vec3BufferView",
			"byteOffset": 41472,
			"byteStride": 12,
			"componentType": 5126,
			"count": 48,
			"max": [ 0.9399626, 1.899989, 0.7100003 ],
			"min": [ -0.05003749, 1.820033, -0.2299953 ],
			"type": "VEC3"
		 },
		"accessor_normal_m1-PolyGlass24_-361130": {
			"bufferView": "vec3BufferView",
			"byteOffset": 42048,
			"byteStride": 12,
			"componentType": 5126,
			"count": 48,
			"max": [ 1, 1, 1 ],
			"min": [ -1, -1, -1 ],
			"type": "VEC3"
		 },
		"accessor_color_m1-PolyGlass24_-361130": {
			"bufferView": "vec4BufferView",
			"byteOffset": 27648,
			"byteStride": 16,
			"componentType": 5126,
			"count": 48,
			"max": [ 0.8392157, 0.8392157, 0.8392157, 0.2509804 ],
			"min": [ 0.8392157, 0.8392157, 0.8392157, 0.2509804 ],
			"type": "VEC4"
		 },
		"accessor_indices_0_m1-PolyGlass24_-361130": {
			"bufferView": "ushortBufferView",
			"byteOffset": 5352,
			"byteStride": 0,
			"componentType": 5123,
			"count": 72,
			"max": [ 47 ],
			"min": [ 0 ],
			"type": "SCALAR"
		 }
	},
	"bufferViews": {
		"ushortBufferView": {
			"buffer": "model",
			"byteLength": 5496,
			"byteOffset": 0,
			"target": 34963
		},
		"vec3BufferView": {
			"buffer": "model",
			"byteLength": 42624,
			"byteOffset": 5496,
			"target": 34962
		},
		"vec4BufferView": {
			"buffer": "model",
			"byteLength": 28416,
			"byteOffset": 48120,
			"target": 34962
		}
	},
	"meshes": {
		"mesh_m0-PolyPaper16_-372930": {
			"name": "mesh_m0-PolyPaper16_-372930",
			"primitives": [
				{
					"attributes": {
						"POSITION": "accessor_position_m0-PolyPaper16_-372930",
						"NORMAL": "accessor_normal_m0-PolyPaper16_-372930",
						"COLOR": "accessor_color_m0-PolyPaper16_-372930"
					},
					"indices": "accessor_indices_0_m0-PolyPaper16_-372930",
					"material": "material_mat16",
					"mode": 4
				}
			]
		},
		"mesh_m1-PolyGlass24_-361130": {
			"name": "mesh_m1-PolyGlass24_-361130",
			"primitives": [
				{
					"attributes": {
						"POSITION": "accessor_position_m1-PolyGlass24_-361130",
						"NORMAL": "accessor_normal_m1-PolyGlass24_-361130",
						"COLOR": "accessor_color_m1-PolyGlass24_-361130"
					},
					"indices": "accessor_indices_0_m1-PolyGlass24_-361130",
					"material": "material_mat24",
					"mode": 4
				}
			]
		}
	},
	"shaders": {
		"vertex_mat16": {
			"type": 35633,
			"uri": "https://vr.google.com/shaders/w/vs.glsl"
		},
		"fragment_mat16": {
			"type": 35632,
			"uri": "https://vr.google.com/shaders/w/fs.glsl"
		},
		"vertex_mat24": {
			"type": 35633,
			"uri": "https://vr.google.com/shaders/w/glassVS.glsl"
		},
		"fragment_mat24": {
			"type": 35632,
			"uri": "https://vr.google.com/shaders/w/glassFS.glsl"
		}
	},
	"programs": {
		"program_mat16": {
			"attributes": [
				"a_position",
				"a_normal",
				"a_color"				
			],
			"vertexShader": "vertex_mat16",
			"fragmentShader": "fragment_mat16"
		},
		"program_mat24": {
			"attributes": [
				"a_position",
				"a_normal",
				"a_color"				
			],
			"vertexShader": "vertex_mat24",
			"fragmentShader": "fragment_mat24"
		}
	},
	"techniques": {
		"technique_mat16": {
			"program": "program_mat16",
			"extras": {"gvrss" : "https://vr.google.com/shaders/w/gvrss/paper.json"},
			"parameters": {
				"position": {
					"type": 35665,
					"semantic": "POSITION"
				},
				"normal": {
					"type": 35665,
					"semantic": "NORMAL"
				},
				"color": {
					"type": 35666,
					"semantic": "COLOR"
				},
				"modelViewMatrix": {
					"type": 35676,
					"semantic": "MODELVIEW"
				},
				"projectionMatrix": {
					"type": 35676,
					"semantic": "PROJECTION"
				},
				"normalMatrix": {
					"type": 35675,
					"semantic": "MODELVIEWINVERSETRANSPOSE"
				},
				"color": {
					"type": 35666
				},
				"roughness": {
					"type": 5126
				},
				"metallic": {
					"type": 5126
				},
				"light0Pos": {
					"type": 35666
				},
				"light0Color": {
					"type": 35666
				},
				"light1Pos": {
					"type": 35666
				},
				"light1Color": {
					"type": 35666
				}				
			},
			"attributes": {
				"a_position": "position",
				"a_normal": "normal",
				"a_color": "color"				
			},
			"uniforms": {
				"u_modelViewMatrix": "modelViewMatrix",
				"u_projectionMatrix": "projectionMatrix",
				"u_normalMatrix": "normalMatrix",
				"u_color": "color",
				"u_roughness": "roughness",
				"u_metallic": "metallic",
				"u_light0Pos": "light0Pos",
				"u_light0Color": "light0Color",
				"u_light1Pos": "light1Pos",
				"u_light1Color": "light1Color"				
			},
			"states": {
				"enable": [
					2929,
					2884
				],
				"functions": {
					"cullFace": [1029]
				}
			}
		},
		"technique_mat24": {
			"program": "program_mat24",
			"extras": {"gvrss" : "https://vr.google.com/shaders/w/gvrss/glass.json"},
			"parameters": {
				"position": {
					"type": 35665,
					"semantic": "POSITION"
				},
				"normal": {
					"type": 35665,
					"semantic": "NORMAL"
				},
				"color": {
					"type": 35666,
					"semantic": "COLOR"
				},
				"modelViewMatrix": {
					"type": 35676,
					"semantic": "MODELVIEW"
				},
				"projectionMatrix": {
					"type": 35676,
					"semantic": "PROJECTION"
				},
				"normalMatrix": {
					"type": 35675,
					"semantic": "MODELVIEWINVERSETRANSPOSE"
				},
				"color": {
					"type": 35666
				},
				"roughness": {
					"type": 5126
				},
				"metallic": {
					"type": 5126
				},
				"light0Pos": {
					"type": 35666
				},
				"light0Color": {
					"type": 35666
				},
				"light1Pos": {
					"type": 35666
				},
				"light1Color": {
					"type": 35666
				}				
			},
			"attributes": {
				"a_position": "position",
				"a_normal": "normal",
				"a_color": "color"				
			},
			"uniforms": {
				"u_modelViewMatrix": "modelViewMatrix",
				"u_projectionMatrix": "projectionMatrix",
				"u_normalMatrix": "normalMatrix",
				"u_color": "color",
				"u_roughness": "roughness",
				"u_metallic": "metallic",
				"u_light0Pos": "light0Pos",
				"u_light0Color": "light0Color",
				"u_light1Pos": "light1Pos",
				"u_light1Color": "light1Color"				
			},
			"states": {
				"enable": [
					2929,
					3042
				],
				"functions": {
					"blendFuncSeparate": [775, 774, 773, 772],
					"depthMask": [true]
				}
			}
		}
	},
	"materials": {
		"material_mat16": {
			"technique": "technique_mat16",
			"values": {
				"color": [0.4705882, 0.5647059, 0.6117647, 1],
				"roughness": 0.72,
				"metallic": 0,
				"light0Pos": [-0.02, 4.11, -0.54, 0],
				"light0Color": [0.8, 0.8, 0.8, 0],
				"light1Pos": [0.02, -4.11, 0.54, 0],
				"light1Color": [0.64, 0.5647059, 0.5647059, 0]				
			},
			"name": "material_mat16"
		},
		"material_mat24": {
			"technique": "technique_mat24",
			"values": {
				"color": [0.8392157, 0.8392157, 0.8392157, 0.2509804],
				"roughness": 0,
				"metallic": 0,
				"light0Pos": [-0.02, 4.11, -0.54, 0],
				"light0Color": [0.8, 0.8, 0.8, 0],
				"light1Pos": [0.02, -4.11, 0.54, 0],
				"light1Color": [0.64, 0.5647059, 0.5647059, 0]				
			},
			"name": "material_mat24"
		}
	},
	"nodes": {
		"node_MeshObject-1923445056-PolyPaper16": {
			"name": "node_MeshObject-1923445056-PolyPaper16",
			"meshes": [
				"mesh_m0-PolyPaper16_-372930"
			],
			"matrix": [1, 0, 0, 0, 0, 1, 0, 0, 0, 0, 1, 0, 0, 0, 0, 1]
		},
		"node_MeshObject1277851072-PolyGlass24": {
			"name": "node_MeshObject1277851072-PolyGlass24",
			"meshes": [
				"mesh_m1-PolyGlass24_-361130"
			],
			"matrix": [1, 0, 0, 0, 0, 1, 0, 0, 0, 0, 1, 0, 0, 0, 0, 1]
		}
	},
	"scene": "defaultScene",
	"scenes": {
		"defaultScene": {
			"nodes": [
				"node_MeshObject-1923445056-PolyPaper16",
				"node_MeshObject1277851072-PolyGlass24"
			],
			"extras": {

			}
		}
	}
}